<svg xmlns="http://www.w3.org/2000/svg" viewBox="0 0 83.91 35"><defs><style>.a{fill:#ec1c24;}</style></defs><title>icon_you-tube_small_hover</title><path class="a" d="M31.3,28.32H28.15V26.48c-1.21,1.38-2.23,2.08-3.34,2.08a2,2,0,0,1-2-1.29,6.73,6.73,0,0,1-.35-2.46V11.42h3.18V25.14a0.62,0.62,0,0,0,.6.64h0.08c0.61,0,1.16-.53,1.83-1.48V11.42h3.18v16.9h0Z"/><path class="a" d="M20.09,16.94a6.73,6.73,0,0,0-1-4,4.22,4.22,0,0,0-3.52-1.63A4,4,0,0,0,12,12.94a6.71,6.71,0,0,0-1,4v6a6.24,6.24,0,0,0,1,3.88,4.43,4.43,0,0,0,3.56,1.76,4.48,4.48,0,0,0,3.54-1.73A6.32,6.32,0,0,0,20.09,23V16.94ZM16.91,23.3c0.17,1.67-.35,2.5-1.34,2.5s-1.51-.83-1.34-2.5V16.6c-0.17-1.67.35-2.46,1.34-2.46s1.51,0.78,1.34,2.46v6.7Z"/><path class="a" d="M7.53,19.12v9.21H4.15V19.12S0.71,7.83,0,5.72H3.51l2.35,8.82L8.2,5.72h3.52Z"/><path class="a" d="M64,14.11a2.35,2.35,0,0,0-1.58.76V25a2.33,2.33,0,0,0,1.58.76c0.87,0,1.27-.64,1.27-2.32v-7.2C65.28,14.6,64.89,14.11,64,14.11Z"/><path class="a" d="M76.5,16.12c0-1.55-.4-2-1.4-2s-1.44.43-1.44,2V18h2.85V16.12h0Z"/><path class="a" d="M83.37,7.55s-0.49-3.43-2-4.94a7.17,7.17,0,0,0-5-2.11C69.38,0,58.89,0,58.89,0h0S48.4,0,41.4.5a7.17,7.17,0,0,0-5,2.11c-1.5,1.51-2,4.94-2,4.94a74.92,74.92,0,0,0-.5,8.05v3.78a74.92,74.92,0,0,0,.5,8s0.49,3.43,2,4.94c1.9,2,4.4,1.92,5.51,2.13,4,0.38,17,.5,17,0.5s10.5,0,17.5-.52a7.17,7.17,0,0,0,5-2.11c1.5-1.51,2-4.94,2-4.94a75,75,0,0,0,.5-8.05V15.6A75,75,0,0,0,83.37,7.55ZM44.86,28.32H41.51V9.07H38V5.9H48.54V9.08H44.86V28.32Zm12,0H53.73V26.48c-1.21,1.38-2.23,2.08-3.34,2.08a2,2,0,0,1-2-1.29A6.73,6.73,0,0,1,48,24.81V11.58h3.18V25.14a0.62,0.62,0,0,0,.6.64H51.9c0.61,0,1.16-.53,1.83-1.48V11.58h3.18V28.32Zm11.55-5a12.87,12.87,0,0,1-.31,3.33,2.49,2.49,0,0,1-2.49,1.89,4.31,4.31,0,0,1-3.19-1.9v1.69h-3V5.89h3V13.2a4.34,4.34,0,0,1,3.2-1.89,2.45,2.45,0,0,1,2.42,1.95,11.74,11.74,0,0,1,.41,3.34v6.7Zm6.69,2.46a1.3,1.3,0,0,0,1.35-1.22v-2.1h3.18v0.47a19.06,19.06,0,0,1-.11,2,4.32,4.32,0,0,1-.71,1.82,4.19,4.19,0,0,1-3.71,1.79,4.34,4.34,0,0,1-3.67-1.71,6.19,6.19,0,0,1-1-3.83V17.11a6.73,6.73,0,0,1,1-4,4.34,4.34,0,0,1,3.68-1.77,4.24,4.24,0,0,1,3.58,1.75,6.56,6.56,0,0,1,1,3.94v3.42h-6v3C73.64,25,74.08,25.78,75.15,25.78Z"/></svg>