<svg xmlns="http://www.w3.org/2000/svg" viewBox="0 0 37.18 34.99"><defs><style>.a{fill:#ec1c24;}</style></defs><title>icon_snapchat_small_hover</title><path class="a" d="M18.88,35H18.41a8.16,8.16,0,0,1-5-2,7.29,7.29,0,0,0-2.89-1.48A9.34,9.34,0,0,0,9,31.39a10.39,10.39,0,0,0-2.1.24,4.61,4.61,0,0,1-.78.11,0.49,0.49,0,0,1-.53-0.35,5.83,5.83,0,0,1-.23-0.89c-0.16-.72-0.27-1.16-0.57-1.2C1.28,28.78.28,28,.06,27.5A0.67,0.67,0,0,1,0,27.28a0.39,0.39,0,0,1,.33-0.41c5.39-.89,7.8-6.39,7.9-6.63h0a2,2,0,0,0,.2-1.74C8.07,17.63,6.86,17.25,6.07,17l-0.53-.18c-1.59-.63-1.72-1.28-1.66-1.6a1.5,1.5,0,0,1,1.46-1,1,1,0,0,1,.44.09,4.64,4.64,0,0,0,1.92.51,1.58,1.58,0,0,0,1.14-.31,6.4,6.4,0,0,0-.07-1.14c-0.18-2.55-.36-5.71.45-7.52a9.74,9.74,0,0,1,9-5.83H19A9.76,9.76,0,0,1,28,5.85c0.81,1.81.61,5,.45,7.52V13.5a5.33,5.33,0,0,1-.06,1,1.53,1.53,0,0,0,1,.36h0a4.8,4.8,0,0,0,1.81-.5,1.36,1.36,0,0,1,.56-0.11,1.72,1.72,0,0,1,.65.12h0a1.19,1.19,0,0,1,.9,1c0,0.37-.28.93-1.67,1.49L31.14,17c-0.8.25-2,.64-2.37,1.51A2,2,0,0,0,29,20.27h0c0.1,0.23,2.51,5.74,7.9,6.62a0.4,0.4,0,0,1,.33.41,0.66,0.66,0,0,1-.06.23c-0.22.52-1.22,1.26-4.73,1.8-0.29,0-.4.42-0.57,1.2-0.06.28-.13,0.56-0.21,0.86a0.47,0.47,0,0,1-.5.37h0a4.39,4.39,0,0,1-.78-0.1,10.46,10.46,0,0,0-2.11-.22,9.35,9.35,0,0,0-1.52.13A7.28,7.28,0,0,0,23.82,33,8.16,8.16,0,0,1,18.88,35Z" transform="translate(-0.01 -0.01)"/></svg>