<svg xmlns="http://www.w3.org/2000/svg" viewBox="0 0 43.09 35.05"><defs><style>.a{fill:#ec1c24;}</style></defs><title>icon_twitter_small_hover</title><path class="a" d="M13.54,35.05c16.26,0,25.14-13.5,25.14-25.14V8.77A18,18,0,0,0,43.09,4.2,17.64,17.64,0,0,1,38,5.55,8.87,8.87,0,0,0,41.89.66,17.71,17.71,0,0,1,36.28,2.8a8.84,8.84,0,0,0-15.06,8.06A25.08,25.08,0,0,1,3,1.67a8.84,8.84,0,0,0,2.74,11.8,8.77,8.77,0,0,1-4-1.11v0.11a8.84,8.84,0,0,0,7.09,8.66,8.82,8.82,0,0,1-4,.15,8.85,8.85,0,0,0,8.25,6.14,17.73,17.73,0,0,1-11,3.78A18,18,0,0,1,0,31.05a25,25,0,0,0,13.54,4" transform="translate(0 0)"/></svg>