<svg xmlns="http://www.w3.org/2000/svg" viewBox="0 0 12.21 15"><defs><style>.a{fill:#ec1c24;}</style></defs><title>icon_phone</title><path class="a" d="M12.65,12.6l-1.72-2.45a1.1,1.1,0,0,0-1.54-.24l-1.23.87L8,10.63A10.61,10.61,0,0,1,5.75,8.36,10.67,10.67,0,0,1,4.36,5.51L4.28,5.29l0.83-.58,0.41-.29a1.1,1.1,0,0,0,.29-1.53L4.08,0.45A1.1,1.1,0,0,0,2.54.21L1.85,0.7v0a3.45,3.45,0,0,0-.63.77,3.6,3.6,0,0,0-.37.83c-0.67,2.24,0,4.5,2.35,7.83C6.46,14.74,9.66,15,9.8,15a3.58,3.58,0,0,0,.91-0.07,3.44,3.44,0,0,0,.93-0.33h0l0.7-.48A1.1,1.1,0,0,0,12.65,12.6Z" transform="translate(-0.63)"/></svg>