<svg xmlns="http://www.w3.org/2000/svg" viewBox="0 0 35 35"><defs><style>.a{fill:#fff;}</style></defs><title>icon_instagram_small</title><path class="a" d="M18,3.65c4.67,0,5.23,0,7.07.1a9.68,9.68,0,0,1,3.25.6,5.42,5.42,0,0,1,2,1.31,5.42,5.42,0,0,1,1.31,2,9.68,9.68,0,0,1,.6,3.25c0.08,1.85.1,2.4,0.1,7.07s0,5.23-.1,7.07a9.68,9.68,0,0,1-.6,3.25,5.8,5.8,0,0,1-3.32,3.32,9.68,9.68,0,0,1-3.25.6c-1.85.08-2.4,0.1-7.07,0.1s-5.23,0-7.07-.1a9.68,9.68,0,0,1-3.25-.6,5.42,5.42,0,0,1-2-1.31,5.42,5.42,0,0,1-1.31-2,9.68,9.68,0,0,1-.6-3.25c-0.08-1.85-.1-2.4-0.1-7.07s0-5.23.1-7.07a9.68,9.68,0,0,1,.6-3.25,5.42,5.42,0,0,1,1.31-2,5.42,5.42,0,0,1,2-1.31,9.68,9.68,0,0,1,3.25-.6c1.85-.08,2.4-0.1,7.07-0.1M18,0.5c-4.75,0-5.35,0-7.22.11a12.84,12.84,0,0,0-4.25.81,8.58,8.58,0,0,0-3.1,2,8.58,8.58,0,0,0-2,3.1,12.84,12.84,0,0,0-.81,4.25C0.52,12.65.5,13.25,0.5,18s0,5.35.11,7.22a12.84,12.84,0,0,0,.81,4.25,8.58,8.58,0,0,0,2,3.1,8.58,8.58,0,0,0,3.1,2,12.84,12.84,0,0,0,4.25.81c1.87,0.09,2.46.11,7.22,0.11s5.35,0,7.22-.11a12.84,12.84,0,0,0,4.25-.81,8.95,8.95,0,0,0,5.12-5.12,12.84,12.84,0,0,0,.81-4.25c0.09-1.87.11-2.46,0.11-7.22s0-5.35-.11-7.22a12.84,12.84,0,0,0-.81-4.25,8.58,8.58,0,0,0-2-3.1,8.58,8.58,0,0,0-3.1-2A12.84,12.84,0,0,0,25.22.61C23.35,0.52,22.75.5,18,.5h0Z" transform="translate(-0.5 -0.5)"/><path class="a" d="M18,9a9,9,0,1,0,9,9A9,9,0,0,0,18,9Zm0,14.82A5.83,5.83,0,1,1,23.83,18,5.83,5.83,0,0,1,18,23.83Z" transform="translate(-0.5 -0.5)"/><circle class="a" cx="26.84" cy="8.16" r="2.1"/></svg>