<svg xmlns="http://www.w3.org/2000/svg" viewBox="0 0 37.29 35"><defs><style>.a{fill:#fff;}</style></defs><title>icon_snapchat_small</title><path class="a" d="M19.29,35.5H18.82a8.16,8.16,0,0,1-5-2,7.29,7.29,0,0,0-2.89-1.48,9.34,9.34,0,0,0-1.52-.13,10.39,10.39,0,0,0-2.1.24,4.61,4.61,0,0,1-.78.11A0.49,0.49,0,0,1,6,31.89C5.89,31.59,5.83,31.3,5.77,31c-0.16-.72-0.27-1.16-0.57-1.2C1.69,29.28.69,28.54,0.47,28a0.67,0.67,0,0,1-.05-0.22,0.39,0.39,0,0,1,.33-0.41c5.39-.89,7.8-6.39,7.9-6.63v0A2.05,2.05,0,0,0,8.85,19c-0.37-.87-1.58-1.25-2.37-1.51l-0.53-.18c-1.59-.63-1.72-1.28-1.66-1.6a1.5,1.5,0,0,1,1.46-1,1,1,0,0,1,.44.09,4.64,4.64,0,0,0,1.92.51A1.58,1.58,0,0,0,9.25,15c0-.36,0-0.75-0.07-1.14C9,11.31,8.82,8.15,9.63,6.34a9.74,9.74,0,0,1,9-5.83h0.75a9.76,9.76,0,0,1,9.06,5.84c0.81,1.81.61,5,.45,7.52V14c0,0.35,0,.7-0.06,1a1.53,1.53,0,0,0,1,.36h0a4.8,4.8,0,0,0,1.81-.5,1.36,1.36,0,0,1,.56-0.11,1.72,1.72,0,0,1,.65.12h0a1.19,1.19,0,0,1,.9,1c0,0.37-.28.93-1.67,1.49l-0.53.18c-0.8.25-2,.64-2.37,1.51a2.05,2.05,0,0,0,.19,1.72v0c0.1,0.23,2.51,5.74,7.9,6.62a0.4,0.4,0,0,1,.33.41,0.66,0.66,0,0,1-.06.23c-0.22.52-1.22,1.26-4.73,1.8-0.29,0-.4.42-0.57,1.2-0.06.28-.13,0.56-0.21,0.86a0.47,0.47,0,0,1-.5.37h0a4.39,4.39,0,0,1-.78-0.1,10.46,10.46,0,0,0-2.11-.22,9.35,9.35,0,0,0-1.52.13,7.28,7.28,0,0,0-2.89,1.47A8.16,8.16,0,0,1,19.29,35.5Z" transform="translate(-0.41 -0.5)"/></svg>