<svg xmlns="http://www.w3.org/2000/svg" viewBox="0 0 15 11.25"><defs><style>.a{fill:#eb2227;}</style></defs><title>icon_email</title><path class="a" d="M15.42,12.12a1.86,1.86,0,0,1-.24.9l-4.74-5.3,4.68-4.1a1.86,1.86,0,0,1,.29,1v7.5h0ZM7.92,8.68L14.44,3a1.85,1.85,0,0,0-.89-0.24H2.29A1.85,1.85,0,0,0,1.4,3Zm1.82-.35L8.23,9.66a0.47,0.47,0,0,1-.62,0L6.1,8.34,1.3,13.7a1.85,1.85,0,0,0,1,.29H13.54a1.85,1.85,0,0,0,1-.29Zm-9-4.72a1.86,1.86,0,0,0-.29,1v7.5a1.85,1.85,0,0,0,.24.9l4.74-5.3Z" transform="translate(-0.42 -2.74)"/></svg>