<svg xmlns="http://www.w3.org/2000/svg" viewBox="0 0 43.07 35"><defs><style>.a{fill:#fff;}</style></defs><title>icon_twitter_small</title><path class="a" d="M13.54,35.5C29.8,35.5,38.68,22,38.68,10.36c0-.38,0-0.76,0-1.14a18,18,0,0,0,4.41-4.57A17.64,17.64,0,0,1,38,6a8.87,8.87,0,0,0,3.89-4.89,17.71,17.71,0,0,1-5.61,2.14,8.84,8.84,0,0,0-15.06,8.06A25.08,25.08,0,0,1,3,2.12a8.84,8.84,0,0,0,2.74,11.8,8.77,8.77,0,0,1-4-1.11s0,0.07,0,.11a8.84,8.84,0,0,0,7.09,8.66,8.82,8.82,0,0,1-4,.15,8.85,8.85,0,0,0,8.25,6.14,17.73,17.73,0,0,1-11,3.78A18,18,0,0,1,0,31.53a25,25,0,0,0,13.54,4" transform="translate(0 -0.5)"/></svg>