<svg xmlns="http://www.w3.org/2000/svg" viewBox="0 0 83.87 35"><defs><style>.a{fill:#fff;}</style></defs><title>icon_you-tube_small</title><path class="a" d="M33.15,29.32H30V27.48c-1.21,1.38-2.23,2.08-3.34,2.08a2,2,0,0,1-2-1.29,6.73,6.73,0,0,1-.35-2.46V12.42h3.18V26.14a0.62,0.62,0,0,0,.68.64c0.61,0,1.16-.53,1.83-1.48V12.42h3.18V29.32Z" transform="translate(-1.85 -1)"/><path class="a" d="M21.94,17.94a6.73,6.73,0,0,0-1-4,4.22,4.22,0,0,0-3.52-1.63,4,4,0,0,0-3.52,1.63,6.71,6.71,0,0,0-1,4v6a6.24,6.24,0,0,0,1,3.88,4.43,4.43,0,0,0,3.56,1.76A4.48,4.48,0,0,0,21,27.85,6.32,6.32,0,0,0,21.94,24v-6ZM18.76,24.3c0.17,1.67-.35,2.5-1.34,2.5s-1.51-.83-1.34-2.5v-6.7c-0.17-1.67.35-2.46,1.34-2.46s1.51,0.78,1.34,2.46v6.7Z" transform="translate(-1.85 -1)"/><path class="a" d="M9.38,20.12v9.21H6V20.12S2.56,8.83,1.85,6.72H5.36l2.35,8.82,2.34-8.82h3.52Z" transform="translate(-1.85 -1)"/><path class="a" d="M65.87,15.11a2.35,2.35,0,0,0-1.58.76V26a2.33,2.33,0,0,0,1.58.76c0.87,0,1.27-.64,1.27-2.32v-7.2C67.13,15.6,66.74,15.11,65.87,15.11Z" transform="translate(-1.85 -1)"/><path class="a" d="M78.35,17.12c0-1.55-.4-2-1.4-2s-1.44.43-1.44,2v1.85h2.85V17.12Z" transform="translate(-1.85 -1)"/><path class="a" d="M85.22,8.55s-0.49-3.43-2-4.94a7.17,7.17,0,0,0-5-2.11C71.23,1,60.74,1,60.74,1h0s-10.49,0-17.49.5a7.17,7.17,0,0,0-5,2.11c-1.5,1.51-2,4.94-2,4.94a74.92,74.92,0,0,0-.5,8.05v3.78a74.92,74.92,0,0,0,.5,8.05s0.49,3.43,2,4.94c1.9,2,4.4,1.92,5.51,2.13,4,0.38,17,.5,17,0.5s10.5,0,17.5-.52a7.17,7.17,0,0,0,5-2.11c1.5-1.51,2-4.94,2-4.94a75,75,0,0,0,.5-8.05V16.6A75,75,0,0,0,85.22,8.55ZM46.71,29.32H43.36V10.07H39.85V6.9H50.39v3.18H46.71V29.32Zm12.05,0H55.58V27.48c-1.21,1.38-2.23,2.08-3.34,2.08a2,2,0,0,1-2-1.29,6.73,6.73,0,0,1-.35-2.46V12.58h3.18V26.14a0.62,0.62,0,0,0,.68.64c0.61,0,1.16-.53,1.83-1.48V12.58h3.18V29.32Zm11.55-5A12.87,12.87,0,0,1,70,27.65a2.49,2.49,0,0,1-2.49,1.89,4.31,4.31,0,0,1-3.19-1.9v1.69h-3V6.89h3v7.31a4.34,4.34,0,0,1,3.2-1.89,2.45,2.45,0,0,1,2.42,1.95,11.74,11.74,0,0,1,.41,3.34v6.7ZM77,26.78a1.3,1.3,0,0,0,1.35-1.22c0-.17,0-0.89,0-2.1h3.18v0.47a19.06,19.06,0,0,1-.11,2,4.32,4.32,0,0,1-.71,1.82A4.19,4.19,0,0,1,77,29.54a4.34,4.34,0,0,1-3.67-1.71A6.19,6.19,0,0,1,72.32,24V18.11a6.73,6.73,0,0,1,1-4A4.34,4.34,0,0,1,77,12.34a4.24,4.24,0,0,1,3.58,1.75,6.56,6.56,0,0,1,1,3.94v3.42h-6v3C75.49,26,75.93,26.78,77,26.78Z" transform="translate(-1.85 -1)"/></svg>